<svg width="549" height="530" viewBox="0 0 549 530" fill="none" xmlns="http://www.w3.org/2000/svg">
<g clip-path="url(#clip0_456_7135)">
<mask id="mask0_456_7135" style="mask-type:alpha" maskUnits="userSpaceOnUse" x="4" y="0" width="544" height="526">
<path d="M351.747 509.586C301.165 525.622 252.966 529.189 207.15 520.286C161.874 511.663 122.704 492.318 89.6387 462.253C56.4436 431.778 32.513 393.41 17.8469 347.149C3.05092 300.479 0.785983 254.791 11.0521 210.087C21.1884 164.974 42.3508 125.376 74.5393 91.2927C107.139 57.0791 147.907 32.2151 196.844 16.7005C249.071 0.142956 298.439 -4.01958 344.948 4.21291C391.868 12.315 432.002 31.129 465.349 60.6547C498.565 89.771 522.247 126.641 536.394 171.264C550.801 216.706 551.141 254.894 537.414 285.828C523.969 316.221 499.563 337.024 464.197 348.236C446.103 353.973 429.513 355.177 414.429 351.85C399.344 348.523 388.253 342.803 381.156 334.691L378.072 335.668C374.066 347.301 365.418 359.278 352.127 371.602C338.836 383.925 322.732 393.085 303.816 399.082C281.198 406.253 258.949 407.45 237.069 402.672C215.059 397.486 195.658 386.967 178.865 371.115C162.484 355.133 150.4 334.861 142.613 310.297C134.826 285.734 133.022 262.202 137.203 239.701C141.795 217.07 151.657 197.499 166.788 180.988C181.789 164.068 200.599 152.023 223.217 144.852C239.255 139.767 254.416 138.34 268.7 140.57C283.395 142.669 294.789 146.49 302.883 152.034L305.967 151.056L304.153 123.923L356.586 107.3L406.035 263.277C409.15 273.103 414.289 280.034 421.452 284.07C429.027 287.976 437.543 288.43 447.002 285.432C461.806 280.738 471.579 270.882 476.322 255.862C481.345 240.303 479.574 219.013 471.008 191.994C460.236 158.015 442.406 130.327 417.521 108.932C393.046 87.4063 363.398 73.8285 328.576 68.1985C293.753 62.5684 256.397 66.0766 216.507 78.7229C179.496 90.4566 148.988 109.14 124.981 134.772C100.846 159.994 85.0306 189.337 77.5367 222.8C70.0427 256.263 71.9416 290.803 83.2332 326.419C94.5249 362.036 112.332 391.082 136.655 413.557C160.978 436.031 189.933 450.279 223.522 456.301C257.522 462.191 293.644 459.074 331.889 446.95L458.344 406.859L478.202 469.496L351.747 509.586ZM291.522 336.751C310.028 330.884 323.091 319.985 330.712 304.053C338.744 287.99 339.58 269.929 333.22 249.869C326.861 229.809 315.771 215.528 299.952 207.027C284.543 198.396 267.586 197.014 249.081 202.881C230.575 208.748 217.306 219.712 209.274 235.775C201.653 251.707 201.023 269.703 207.382 289.763C213.742 309.823 224.626 324.169 240.034 332.8C255.854 341.301 273.016 342.618 291.522 336.751Z" fill="url(#paint0_linear_456_7135)"/>
</mask>
<g mask="url(#mask0_456_7135)">
<g filter="url(#filter0_f_456_7135)">
<ellipse cx="417.984" cy="440.095" rx="325.431" ry="195.523" transform="rotate(-48.3169 417.984 440.095)" fill="#D426FF"/>
</g>
<g filter="url(#filter1_f_456_7135)">
<ellipse cx="48.1035" cy="-51.5374" rx="359.484" ry="133.583" transform="rotate(-17.5903 48.1035 -51.5374)" fill="#265AFF"/>
</g>
</g>
</g>
<defs>
<filter id="filter0_f_456_7135" x="-43.1136" y="-35.5967" width="922.195" height="951.384" filterUnits="userSpaceOnUse" color-interpolation-filters="sRGB">
<feFlood flood-opacity="0" result="BackgroundImageFix"/>
<feBlend mode="normal" in="SourceGraphic" in2="BackgroundImageFix" result="shape"/>
<feGaussianBlur stdDeviation="100" result="effect1_foregroundBlur_456_7135"/>
</filter>
<filter id="filter1_f_456_7135" x="-696.975" y="-618.924" width="1490.16" height="1134.77" filterUnits="userSpaceOnUse" color-interpolation-filters="sRGB">
<feFlood flood-opacity="0" result="BackgroundImageFix"/>
<feBlend mode="normal" in="SourceGraphic" in2="BackgroundImageFix" result="shape"/>
<feGaussianBlur stdDeviation="200" result="effect1_foregroundBlur_456_7135"/>
</filter>
<linearGradient id="paint0_linear_456_7135" x1="-0.127215" y1="114.398" x2="419.349" y2="450.699" gradientUnits="userSpaceOnUse">
<stop stop-color="#D8E0EB"/>
<stop offset="1" stop-color="#D8E0EB" stop-opacity="0"/>
</linearGradient>
<clipPath id="clip0_456_7135">
<rect width="549" height="530" fill="white"/>
</clipPath>
</defs>
</svg>
