<svg width="18" height="18" viewBox="0 0 18 18" fill="none" xmlns="http://www.w3.org/2000/svg">
    <path d="M17.3085 1.5585C17.5038 1.36324 17.5038 1.04666 17.3085 0.851398C17.1132 0.656136 16.7967 0.656136 16.6014 0.851398L17.3085 1.5585ZM0.691495 16.7613C0.496234 16.9566 0.496234 17.2731 0.691495 17.4684C0.886757 17.6637 1.20334 17.6637 1.3986 17.4684L0.691495 16.7613ZM16.6014 17.4684C16.7967 17.6637 17.1132 17.6637 17.3085 17.4684C17.5038 17.2731 17.5038 16.9566 17.3085 16.7613L16.6014 17.4684ZM1.3986 0.851397C1.20334 0.656135 0.886759 0.656134 0.691496 0.851397C0.496234 1.04666 0.496234 1.36324 0.691496 1.5585L1.3986 0.851397ZM16.6014 0.851398L0.691495 16.7613L1.3986 17.4684L17.3085 1.5585L16.6014 0.851398ZM17.3085 16.7613L1.3986 0.851397L0.691496 1.5585L16.6014 17.4684L17.3085 16.7613Z" fill="white"/>
</svg>
