<svg style="margin-top:-8px;" width="325" height="307" viewBox="0 0 325 307" fill="none" xmlns="http://www.w3.org/2000/svg">
    <g filter="url(#filter0_f_318_1753)">
        <ellipse cx="146.651" cy="189.046" rx="57.374" ry="86.5173" transform="rotate(90 146.651 189.046)" fill="#2656FF"/>
    </g>
    <g filter="url(#filter1_f_318_1753)">
        <ellipse cx="190.137" cy="134.703" rx="75.8922" ry="73.0201" transform="rotate(45 190.137 134.703)" fill="#8000FF"/>
    </g>
    <g filter="url(#filter2_f_318_1753)">
        <ellipse cx="151.822" cy="158.339" rx="50.2093" ry="47.7229" transform="rotate(45 151.822 158.339)" fill="#FF26E9"/>
    </g>
    <path d="M155.364 219H114.114V102.636H155.705C167.409 102.636 177.485 104.966 185.932 109.625C194.379 114.246 200.875 120.894 205.42 129.568C210.004 138.242 212.295 148.621 212.295 160.705C212.295 172.826 210.004 183.242 205.42 191.955C200.875 200.667 194.341 207.352 185.818 212.011C177.333 216.67 167.182 219 155.364 219ZM138.716 197.92H154.341C161.614 197.92 167.731 196.633 172.693 194.057C177.693 191.443 181.443 187.409 183.943 181.955C186.481 176.462 187.75 169.379 187.75 160.705C187.75 152.106 186.481 145.08 183.943 139.625C181.443 134.17 177.712 130.155 172.75 127.58C167.788 125.004 161.67 123.716 154.398 123.716H138.716V197.92Z" fill="#1F1D37"/>
    <defs>
        <filter id="filter0_f_318_1753" x="0.133545" y="71.6724" width="293.034" height="234.748" filterUnits="userSpaceOnUse" color-interpolation-filters="sRGB">
            <feFlood flood-opacity="0" result="BackgroundImageFix"/>
            <feBlend mode="normal" in="SourceGraphic" in2="BackgroundImageFix" result="shape"/>
            <feGaussianBlur stdDeviation="30" result="effect1_foregroundBlur_318_1753"/>
        </filter>
        <filter id="filter1_f_318_1753" x="55.667" y="0.233154" width="268.94" height="268.94" filterUnits="userSpaceOnUse" color-interpolation-filters="sRGB">
            <feFlood flood-opacity="0" result="BackgroundImageFix"/>
            <feBlend mode="normal" in="SourceGraphic" in2="BackgroundImageFix" result="shape"/>
            <feGaussianBlur stdDeviation="30" result="effect1_foregroundBlur_318_1753"/>
        </filter>
        <filter id="filter2_f_318_1753" x="42.8396" y="49.3574" width="217.964" height="217.964" filterUnits="userSpaceOnUse" color-interpolation-filters="sRGB">
            <feFlood flood-opacity="0" result="BackgroundImageFix"/>
            <feBlend mode="normal" in="SourceGraphic" in2="BackgroundImageFix" result="shape"/>
            <feGaussianBlur stdDeviation="30" result="effect1_foregroundBlur_318_1753"/>
        </filter>
    </defs>
</svg>
