<svg width="269" height="282" viewBox="0 0 269 282" fill="none" xmlns="http://www.w3.org/2000/svg">
    <g filter="url(#filter0_f_318_1731)">
        <ellipse cx="152.461" cy="165.197" rx="57.5177" ry="55.341" transform="rotate(45 152.461 165.197)" fill="#FB26FF"/>
    </g>
    <g filter="url(#filter1_f_318_1731)">
        <ellipse cx="123.484" cy="123.236" rx="77.5925" ry="43.3088" transform="rotate(45 123.484 123.236)" fill="#265AFF"/>
    </g>
    <g filter="url(#filter2_f_318_1731)">
        <ellipse cx="136.458" cy="143.63" rx="48.7278" ry="48.5558" transform="rotate(45 136.458 143.63)" fill="#26FFE5"/>
    </g>
    <path d="M165.239 121.102C164.784 116.519 162.833 112.958 159.386 110.42C155.939 107.883 151.261 106.614 145.352 106.614C141.337 106.614 137.947 107.182 135.182 108.318C132.417 109.417 130.295 110.951 128.818 112.92C127.379 114.89 126.659 117.125 126.659 119.625C126.583 121.708 127.019 123.527 127.966 125.08C128.951 126.633 130.295 127.977 132 129.114C133.705 130.212 135.674 131.178 137.909 132.011C140.144 132.807 142.53 133.489 145.068 134.057L155.523 136.557C160.598 137.693 165.258 139.208 169.5 141.102C173.742 142.996 177.417 145.326 180.523 148.091C183.629 150.856 186.034 154.114 187.739 157.864C189.481 161.614 190.371 165.913 190.409 170.761C190.371 177.883 188.553 184.057 184.955 189.284C181.394 194.473 176.242 198.508 169.5 201.386C162.795 204.227 154.708 205.648 145.239 205.648C135.845 205.648 127.663 204.208 120.693 201.33C113.761 198.451 108.345 194.189 104.443 188.545C100.58 182.864 98.553 175.837 98.3636 167.466H122.17C122.436 171.367 123.553 174.625 125.523 177.239C127.53 179.814 130.201 181.765 133.534 183.091C136.905 184.379 140.712 185.023 144.955 185.023C149.121 185.023 152.739 184.417 155.807 183.205C158.913 181.992 161.318 180.307 163.023 178.148C164.727 175.989 165.58 173.508 165.58 170.705C165.58 168.091 164.803 165.894 163.25 164.114C161.735 162.333 159.5 160.818 156.545 159.568C153.629 158.318 150.049 157.182 145.807 156.159L133.136 152.977C123.326 150.591 115.58 146.86 109.898 141.784C104.216 136.708 101.394 129.871 101.432 121.273C101.394 114.227 103.269 108.072 107.057 102.807C110.883 97.5417 116.129 93.4318 122.795 90.4773C129.462 87.5227 137.038 86.0455 145.523 86.0455C154.159 86.0455 161.697 87.5227 168.136 90.4773C174.614 93.4318 179.652 97.5417 183.25 102.807C186.848 108.072 188.705 114.17 188.818 121.102H165.239Z" fill="#1F1D37"/>
    <defs>
        <filter id="filter0_f_318_1731" x="36.0209" y="48.7568" width="232.88" height="232.88" filterUnits="userSpaceOnUse" color-interpolation-filters="sRGB">
            <feFlood flood-opacity="0" result="BackgroundImageFix"/>
            <feBlend mode="normal" in="SourceGraphic" in2="BackgroundImageFix" result="shape"/>
            <feGaussianBlur stdDeviation="30" result="effect1_foregroundBlur_318_1731"/>
        </filter>
        <filter id="filter1_f_318_1731" x="0.638672" y="0.390869" width="245.691" height="245.691" filterUnits="userSpaceOnUse" color-interpolation-filters="sRGB">
            <feFlood flood-opacity="0" result="BackgroundImageFix"/>
            <feBlend mode="normal" in="SourceGraphic" in2="BackgroundImageFix" result="shape"/>
            <feGaussianBlur stdDeviation="30" result="effect1_foregroundBlur_318_1731"/>
        </filter>
        <filter id="filter2_f_318_1731" x="27.8162" y="34.9883" width="217.284" height="217.284" filterUnits="userSpaceOnUse" color-interpolation-filters="sRGB">
            <feFlood flood-opacity="0" result="BackgroundImageFix"/>
            <feBlend mode="normal" in="SourceGraphic" in2="BackgroundImageFix" result="shape"/>
            <feGaussianBlur stdDeviation="30" result="effect1_foregroundBlur_318_1731"/>
        </filter>
    </defs>
</svg>
