<svg width="400" height="400" viewBox="0 0 400 400" fill="none" xmlns="http://www.w3.org/2000/svg">
    <path d="M0 112.5C0 50.368 50.368 0 112.5 0H287.5C349.632 0 400 50.368 400 112.5V287.5C400 349.632 349.632 400 287.5 400H112.5C50.368 400 0 349.632 0 287.5V112.5Z" fill="url(#paint0_linear_718_2423)"/>
    <path d="M137.065 82.3859L139.996 80.3048L143.287 78.5743L143.324 78.5526C146.474 76.7181 149.772 75.0983 153.172 73.7186L157.632 71.9597L162.414 70.2189L167.2 68.8248L172.377 67.4248L177.129 66.3869L181.878 65.6953L185.556 65.3471L185.573 65.3456L189.589 65H199.52L203.187 65.3471L207.68 65.7015L211.348 66.0486L215.73 66.74L219.012 67.4303L224.534 68.8241L230.042 70.5619L233.693 71.9442L237.738 73.6849L241.413 75.4239L244.677 77.1401L254.675 83.4493L257.559 85.4971L260.822 88.2425L265.967 93.1119L268.169 95.5437L270.754 98.3402L274.415 102.845L276.595 105.94L278.797 109.414L280.63 112.537L282.459 116L285.418 122.302L286.852 125.696L288.308 130.863L289.784 136.801L290.893 142.746L290.897 142.776C291.373 145.702 291.612 148.658 291.612 151.618V157.526C291.374 159.502 290.976 161.459 290.423 163.379L290.216 164.098L290.066 164.487C289.241 166.635 288.24 168.72 287.071 170.723L286.943 170.896C285.408 172.972 283.684 174.919 281.792 176.715L278.572 179.424C276.448 180.756 274.219 181.933 271.904 182.944L270.831 183.413L266.194 184.764L263.998 185.142C263.822 185.144 263.645 185.144 263.468 185.144C249.405 185.144 237.514 179.117 231.319 170.58L230.945 169.944C230.232 168.728 229.622 167.462 229.121 166.157L228.466 164.453L227.386 160.706L227.234 159.985C226.876 158.289 226.695 156.565 226.695 154.836V152.905L226.287 149.814L225.793 147.944C225.321 146.154 224.677 144.41 223.872 142.734L223.066 141.056L222.13 139.664C220.874 137.795 219.407 136.064 217.756 134.501L216.996 133.782L213.432 131.158L211.505 130.064C210.12 129.277 208.66 128.619 207.146 128.098C205.695 127.598 204.199 127.226 202.678 126.986L202.426 126.947C200.908 126.707 199.371 126.587 197.832 126.587H194.305L191.596 126.77C189.757 126.894 187.931 127.17 186.141 127.594L184.081 128.081L182.575 128.599C180.66 129.259 178.814 130.091 177.064 131.085L175.701 131.859L173.509 133.415C172.844 133.887 172.214 134.404 171.625 134.962C170.805 135.738 170.066 136.59 169.421 137.507L168.705 138.524L168.345 139.204C167.696 140.432 167.259 141.755 167.053 143.122C166.962 143.723 166.916 144.33 166.916 144.938V145.549C166.916 146.402 166.991 147.253 167.139 148.094C167.279 148.89 167.485 149.675 167.755 150.44L168.022 151.2C168.404 152.283 168.897 153.327 169.494 154.316C170.025 155.196 170.636 156.028 171.319 156.804L172.341 157.966L173.256 158.831C174.017 159.551 174.838 160.21 175.712 160.8C176.78 161.523 177.922 162.14 179.118 162.644L180.98 163.427L188.573 165.583L188.585 165.586L193.47 167.009L197.662 168.091L201.009 168.795L204.773 169.864L212.366 171.302L216.515 172.016L220.993 172.722L224.681 173.42C232.177 184.671 246.946 192.029 263.468 192.029C264.167 192.029 264.863 192.016 265.554 191.991L265.762 192.155L265.784 192.172L268.325 194.234L276.459 201.933L279.005 204.688L281.901 208.114L284.423 211.865L286.617 215.673L288.834 219.869L291.422 225.118L291.843 226.086C293.24 229.299 294.306 232.63 295.025 236.034L295.031 236.064L296.139 240.605L296.867 245.773L297.229 249.887V256.084L296.868 259.844L296.133 265.062L296.046 265.5C295.384 268.839 294.446 272.124 293.238 275.325L293.23 275.345L291.741 279.575L289.924 284.047L288.115 287.471L285.948 291.231L282.288 296.081L282.278 296.094L279.328 299.934L276.022 303.758L273.135 306.833L269.842 309.603L265.422 313.439L261.394 316.211L257.697 318.66L254.412 320.733L251.149 322.45L246.726 324.543L242.667 326.289L238.234 328.038L232.304 330.143L232.275 330.153L227.166 331.879L222.433 332.913L216.924 333.956L210.311 334.652L204.423 335H197.82L193.419 334.653L193.405 334.652L189.384 334.306L185.381 333.617L185.348 333.611L181.663 332.913L176.889 331.87L172.108 330.478L167.689 329.084L162.199 327.005L157.809 324.927L153.755 322.834L150.086 320.751L146.827 318.694L143.167 315.923L143.15 315.909L139.089 312.764L135.044 309.284L132.506 306.881L127.325 301.276L125.524 299.232L122.977 295.788L119.674 290.924L117.108 286.412L115.268 282.929L113.439 279.12L111.616 274.635L110.147 270.116L108.69 265.287L107.593 259.057L106.857 253.833L106.494 249.364V244.224L106.847 240.546L106.922 240.213C107.562 237.385 108.472 234.616 109.64 231.941L109.772 231.727C111.309 229.233 113.036 226.846 114.939 224.587L116.847 222.78C117.931 221.755 119.108 220.819 120.367 219.985C121.426 219.284 122.539 218.656 123.698 218.108L124.303 217.821C126.042 216.998 127.857 216.322 129.724 215.802C130.17 215.678 130.617 215.563 131.068 215.457C145.938 212.98 158.45 217.572 165.638 227.407L166.843 229.233L166.963 229.438C168.047 231.284 168.946 233.22 169.651 235.22L170.73 238.286C171.182 240.467 171.41 242.685 171.41 244.907V245.976L171.591 248.374C171.738 250.319 172.169 252.234 172.872 254.064C173.273 255.106 173.76 256.116 174.328 257.084L175.455 259.006L177.414 261.972L178.907 263.789C179.783 264.855 180.763 265.838 181.834 266.724C182.954 267.652 184.167 268.47 185.455 269.167L186.388 269.671L188.117 270.415C189.86 271.165 191.665 271.776 193.512 272.243L193.655 272.279C195.668 272.787 197.737 273.114 199.813 273.254C201.423 273.363 203.048 273.359 204.659 273.242C206.487 273.109 208.302 272.83 210.082 272.409L211.136 272.159C212.844 271.755 214.515 271.223 216.134 270.566C218.219 269.72 220.208 268.673 222.069 267.439L223.286 266.633L225.728 264.532C227.028 263.413 228.18 262.146 229.158 260.757L229.33 260.514C229.893 259.714 230.384 258.869 230.798 257.989L231.207 257.117C231.652 256.168 231.949 255.159 232.086 254.123C232.258 252.82 232.174 251.497 231.838 250.225L231.735 249.836C231.546 249.12 231.292 248.422 230.976 247.75L230.752 247.271C230.099 245.882 229.272 244.575 228.29 243.38L228.076 243.12C227.281 242.152 226.4 241.252 225.444 240.429L225.033 240.075C223.316 238.599 221.418 237.328 219.381 236.289C217.944 235.557 216.443 234.943 214.897 234.455L211.408 233.354L206.095 231.918L201.554 230.843L196.655 229.773L191.427 228.713L191.398 228.707L186.532 227.643L180.913 226.58L180.887 226.575L172.344 224.842C165.203 213.272 150.334 207.094 134.464 208.194L131.927 206.393L129.039 204.001L125.377 200.535L121.702 196.708L118.43 192.923L114.046 186.698L111.863 182.909L109.661 178.742L107.466 173.894L105.64 169.055L104.19 164.25L103.099 158.745L102.366 152.847L102 147.299V138.982L102.725 133.15L103.815 127.645L105.272 122.819L107.101 117.626L109.287 112.798L111.46 108.684L115.122 103.139L117.649 99.7206L122.428 94.5015L126.461 90.3368L130.089 87.2459L133.721 84.4962L137.065 82.3859Z" fill="white"/>
    <defs>
        <linearGradient id="paint0_linear_718_2423" x1="400.002" y1="-34.3962" x2="101.075" y2="460.991" gradientUnits="userSpaceOnUse">
            <stop stop-color="#E900FA"/>
            <stop offset="1" stop-color="#3727FD"/>
        </linearGradient>
    </defs>
</svg>
