<svg width="244" height="244" viewBox="0 0 244 244" fill="none" xmlns="http://www.w3.org/2000/svg">
    <path fill-rule="evenodd" clip-rule="evenodd" d="M244 122C244 189.379 189.379 244 122 244C54.6213 244 0 189.379 0 122C0 54.6213 54.6213 0 122 0C189.379 0 244 54.6213 244 122ZM126.372 90.0658C114.506 95.0014 90.7896 105.217 55.2241 120.712C49.4489 123.009 46.4235 125.256 46.1481 127.452C45.6826 131.165 50.3322 132.627 56.6636 134.618C57.5248 134.889 58.4171 135.17 59.3319 135.467C65.561 137.492 73.9403 139.861 78.2963 139.955C82.2477 140.04 86.6578 138.411 91.5267 135.068C124.757 112.637 141.91 101.299 142.987 101.054C143.747 100.882 144.8 100.665 145.513 101.299C146.226 101.933 146.156 103.134 146.081 103.456C145.62 105.42 127.369 122.387 117.924 131.168C114.98 133.906 112.891 135.847 112.464 136.291C111.508 137.284 110.533 138.224 109.596 139.127C103.809 144.706 99.4697 148.889 109.837 155.721C114.818 159.004 118.805 161.719 122.782 164.427C127.126 167.385 131.458 170.335 137.063 174.009C138.491 174.945 139.855 175.918 141.183 176.865C146.238 180.468 150.779 183.706 156.39 183.19C159.65 182.89 163.017 179.824 164.727 170.682C168.769 149.075 176.713 102.261 178.549 82.9699C178.71 81.2798 178.508 79.1167 178.345 78.1672C178.183 77.2177 177.843 75.8648 176.609 74.8633C175.147 73.6772 172.89 73.4271 171.881 73.4449C167.293 73.5257 160.253 75.9736 126.372 90.0658Z" fill="#1F1D37"/>
</svg>
