<svg width="24" height="23" viewBox="0 0 24 23" fill="none" xmlns="http://www.w3.org/2000/svg">
    <path fill-rule="evenodd" clip-rule="evenodd" d="M12 0.459961C5.37017 0.459961 0 5.52648 0 11.7814C0 16.7854 3.44015 21.0249 8.20626 22.5261C8.80295 22.6303 9.02394 22.2828 9.02394 21.977C9.02394 21.706 9.01657 20.9971 9.00921 20.0519C5.67219 20.733 4.96501 18.5368 4.96501 18.5368C4.41989 17.2302 3.63168 16.8827 3.63168 16.8827C2.54144 16.1808 3.71271 16.1947 3.71271 16.1947C4.91344 16.2781 5.55433 17.3622 5.55433 17.3622C6.62247 19.0928 8.36096 18.5924 9.04604 18.3005C9.15654 17.5707 9.46593 17.0703 9.80479 16.7854C7.13812 16.5005 4.33886 15.5275 4.33886 11.1907C4.33886 9.9536 4.80295 8.94585 5.57643 8.15356C5.4512 7.86861 5.03867 6.71492 5.69429 5.15813C5.69429 5.15813 6.7035 4.85233 8.99447 6.31877C9.95212 6.06857 10.9761 5.94347 12 5.93652C13.0166 5.93652 14.0479 6.06857 15.0055 6.31877C17.2965 4.85233 18.3057 5.15813 18.3057 5.15813C18.9613 6.71492 18.5488 7.86861 18.4236 8.15356C19.1897 8.94585 19.6538 9.9536 19.6538 11.1907C19.6538 15.5414 16.8471 16.4935 14.1731 16.7785C14.6004 17.1259 14.9908 17.8209 14.9908 18.8773C14.9908 20.3924 14.9761 21.6087 14.9761 21.984C14.9761 22.2898 15.1897 22.6373 15.8011 22.5261C20.5672 21.0249 24 16.7854 24 11.7884C24 5.52648 18.6298 0.459961 12 0.459961Z" fill="white"/>
</svg>
