<svg style="margin-top:16px;" width="246" height="277" viewBox="0 0 246 277" fill="none" xmlns="http://www.w3.org/2000/svg">
    <g filter="url(#filter0_f_318_1775)">
        <ellipse cx="129.129" cy="160.197" rx="57.5177" ry="55.341" transform="rotate(45 129.129 160.197)" fill="#263CFF"/>
    </g>
    <g filter="url(#filter1_f_318_1775)">
        <ellipse cx="117.96" cy="115.26" rx="61.21" ry="47.847" transform="rotate(45 117.96 115.26)" fill="#26FF97"/>
    </g>
    <g filter="url(#filter2_f_318_1775)">
        <ellipse cx="105.895" cy="130.515" rx="48.7014" ry="42.1099" transform="rotate(45 105.895 130.515)" fill="#FAFF00"/>
    </g>
    <path d="M175.045 130.818C175.045 143.508 172.64 154.303 167.83 163.205C163.057 172.106 156.542 178.905 148.284 183.602C140.064 188.261 130.822 190.591 120.557 190.591C110.216 190.591 100.936 188.242 92.7159 183.545C84.4962 178.848 78 172.049 73.2273 163.148C68.4545 154.246 66.0682 143.47 66.0682 130.818C66.0682 118.129 68.4545 107.333 73.2273 98.4318C78 89.5303 84.4962 82.75 92.7159 78.0909C100.936 73.3939 110.216 71.0455 120.557 71.0455C130.822 71.0455 140.064 73.3939 148.284 78.0909C156.542 82.75 163.057 89.5303 167.83 98.4318C172.64 107.333 175.045 118.129 175.045 130.818ZM150.102 130.818C150.102 122.598 148.871 115.667 146.409 110.023C143.985 104.379 140.557 100.098 136.125 97.1818C131.693 94.2652 126.504 92.8068 120.557 92.8068C114.61 92.8068 109.42 94.2652 104.989 97.1818C100.557 100.098 97.1098 104.379 94.6477 110.023C92.2235 115.667 91.0114 122.598 91.0114 130.818C91.0114 139.038 92.2235 145.97 94.6477 151.614C97.1098 157.258 100.557 161.538 104.989 164.455C109.42 167.371 114.61 168.83 120.557 168.83C126.504 168.83 131.693 167.371 136.125 164.455C140.557 161.538 143.985 157.258 146.409 151.614C148.871 145.97 150.102 139.038 150.102 130.818Z" fill="#1F1D37"/>
    <defs>
        <filter id="filter0_f_318_1775" x="12.689" y="43.7568" width="232.88" height="232.88" filterUnits="userSpaceOnUse" color-interpolation-filters="sRGB">
            <feFlood flood-opacity="0" result="BackgroundImageFix"/>
            <feBlend mode="normal" in="SourceGraphic" in2="BackgroundImageFix" result="shape"/>
            <feGaussianBlur stdDeviation="30" result="effect1_foregroundBlur_318_1775"/>
        </filter>
        <filter id="filter1_f_318_1775" x="3.02124" y="0.321289" width="229.877" height="229.877" filterUnits="userSpaceOnUse" color-interpolation-filters="sRGB">
            <feFlood flood-opacity="0" result="BackgroundImageFix"/>
            <feBlend mode="normal" in="SourceGraphic" in2="BackgroundImageFix" result="shape"/>
            <feGaussianBlur stdDeviation="30" result="effect1_foregroundBlur_318_1775"/>
        </filter>
        <filter id="filter2_f_318_1775" x="0.368896" y="24.9893" width="211.052" height="211.052" filterUnits="userSpaceOnUse" color-interpolation-filters="sRGB">
            <feFlood flood-opacity="0" result="BackgroundImageFix"/>
            <feBlend mode="normal" in="SourceGraphic" in2="BackgroundImageFix" result="shape"/>
            <feGaussianBlur stdDeviation="30" result="effect1_foregroundBlur_318_1775"/>
        </filter>
    </defs>
</svg>
