<svg style="margin-top:16px;" width="294" height="275" viewBox="0 0 294 275" fill="none" xmlns="http://www.w3.org/2000/svg">
    <g filter="url(#filter0_f_318_1764)">
        <ellipse cx="170.974" cy="122.189" rx="63.2893" ry="60.8942" transform="rotate(45 170.974 122.189)" fill="#33FF00"/>
    </g>
    <g filter="url(#filter1_f_318_1764)">
        <ellipse cx="147.151" cy="157.046" rx="57.374" ry="86.5173" transform="rotate(90 147.151 157.046)" fill="#0038FF"/>
    </g>
    <g filter="url(#filter2_f_318_1764)">
        <ellipse cx="152.322" cy="126.339" rx="50.2093" ry="47.7229" transform="rotate(45 152.322 126.339)" fill="#00FFFF"/>
    </g>
    <path d="M120.114 187V70.6364H166.023C174.811 70.6364 182.311 72.2083 188.523 75.3523C194.773 78.4583 199.527 82.8712 202.784 88.5909C206.08 94.2727 207.727 100.958 207.727 108.648C207.727 116.375 206.061 123.023 202.727 128.591C199.394 134.121 194.564 138.364 188.239 141.318C181.951 144.273 174.337 145.75 165.398 145.75H134.659V125.977H161.42C166.117 125.977 170.019 125.333 173.125 124.045C176.231 122.758 178.542 120.826 180.057 118.25C181.61 115.674 182.386 112.473 182.386 108.648C182.386 104.784 181.61 101.527 180.057 98.875C178.542 96.2235 176.212 94.2159 173.068 92.8523C169.962 91.4508 166.042 90.75 161.307 90.75H144.716V187H120.114ZM182.955 134.045L211.875 187H184.716L156.42 134.045H182.955Z" fill="#1F1D37"/>
    <defs>
        <filter id="filter0_f_318_1764" x="48.8711" y="0.0854492" width="244.207" height="244.207" filterUnits="userSpaceOnUse" color-interpolation-filters="sRGB">
            <feFlood flood-opacity="0" result="BackgroundImageFix"/>
            <feBlend mode="normal" in="SourceGraphic" in2="BackgroundImageFix" result="shape"/>
            <feGaussianBlur stdDeviation="30" result="effect1_foregroundBlur_318_1764"/>
        </filter>
        <filter id="filter1_f_318_1764" x="0.633545" y="39.6724" width="293.034" height="234.748" filterUnits="userSpaceOnUse" color-interpolation-filters="sRGB">
            <feFlood flood-opacity="0" result="BackgroundImageFix"/>
            <feBlend mode="normal" in="SourceGraphic" in2="BackgroundImageFix" result="shape"/>
            <feGaussianBlur stdDeviation="30" result="effect1_foregroundBlur_318_1764"/>
        </filter>
        <filter id="filter2_f_318_1764" x="43.3396" y="17.3574" width="217.964" height="217.964" filterUnits="userSpaceOnUse" color-interpolation-filters="sRGB">
            <feFlood flood-opacity="0" result="BackgroundImageFix"/>
            <feBlend mode="normal" in="SourceGraphic" in2="BackgroundImageFix" result="shape"/>
            <feGaussianBlur stdDeviation="30" result="effect1_foregroundBlur_318_1764"/>
        </filter>
    </defs>
</svg>
