<svg viewBox="0 0 1280 253" fill="none" xmlns="http://www.w3.org/2000/svg">
    <path d="M117.655 252.849C92.5921 252.849 71.2426 249.372 53.606 242.419C35.9694 235.234 22.6259 225.268 13.5755 212.52C4.52518 199.772 0 185.054 0 168.366H58.8273C58.8273 178.333 63.8166 186.445 73.7952 192.703C83.7738 198.961 98.3936 202.09 117.655 202.09C152.464 202.09 169.868 194.094 169.868 178.101C169.868 171.148 166.851 165.933 160.818 162.456C154.784 158.748 144.806 155.735 130.882 153.417L81.8013 145.073C56.9708 141.133 38.1739 133.6 25.4106 122.475C12.6473 111.118 6.26563 95.3568 6.26563 75.1923C6.26563 60.5904 10.4427 47.7268 18.7969 36.6015C27.1511 25.2445 39.3342 16.4369 55.3464 10.179C71.3586 3.68924 90.5036 0.444366 112.781 0.444366C137.148 0.444366 157.917 4.0369 175.09 11.222C192.262 18.1753 205.257 28.0258 214.076 40.7735C223.126 53.5212 227.651 68.239 227.651 84.9269H168.824C168.824 74.9605 163.951 66.8483 154.204 60.5904C144.458 54.3324 130.65 51.2034 112.781 51.2034C81.6853 51.2034 66.1372 59.0838 66.1372 74.8446C66.1372 81.3344 68.9219 86.4334 74.4914 90.1419C80.2929 93.6185 89.8074 96.3998 103.035 98.4858L147.939 105.787C176.25 110.191 196.903 118.187 209.899 129.776C223.126 141.364 229.74 157.009 229.74 176.71C229.74 200.12 220.109 218.662 200.848 232.337C181.587 246.012 153.856 252.849 117.655 252.849Z"
          fill="#456ee6"
    >
        <animate attributeName="fill" values="#456ee6;#c67c9b;#456ee6" dur="7s" repeatCount="indefinite" />
    </path>

    <path d="M394.509 252.849C369.214 252.849 346.124 247.634 325.239 237.204C304.354 226.542 287.877 211.709 275.81 192.703C263.743 173.465 257.709 151.447 257.709 126.647C257.709 101.847 263.743 79.9437 275.81 60.938C287.877 41.7006 304.354 26.8669 325.239 16.4369C346.124 5.77523 369.214 0.444366 394.509 0.444366C419.804 0.444366 442.894 5.77523 463.779 16.4369C484.665 26.8669 501.141 41.7006 513.208 60.938C525.275 79.9437 531.309 101.847 531.309 126.647C531.309 151.447 525.275 173.465 513.208 192.703C501.141 211.709 484.665 226.542 463.779 237.204C442.894 247.634 419.804 252.849 394.509 252.849ZM394.509 198.961C408.897 198.961 421.892 195.948 433.495 189.922C445.33 183.895 454.613 175.436 461.342 164.542C468.072 153.649 471.437 141.017 471.437 126.647C471.437 112.277 468.072 99.6447 461.342 88.7512C454.613 77.8577 445.33 69.3979 433.495 63.3717C421.892 57.3455 408.897 54.3324 394.509 54.3324C380.121 54.3324 367.01 57.3455 355.175 63.3717C343.572 69.3979 334.405 77.8577 327.676 88.7512C320.946 99.6447 317.581 112.277 317.581 126.647C317.581 141.017 320.946 153.649 327.676 164.542C334.405 175.436 343.572 183.895 355.175 189.922C367.01 195.948 380.121 198.961 394.509 198.961Z"
          fill="#44a7df"
    >
        <animate attributeName="fill" values="#44a7df;#f9d91f;#44a7df" dur="8s" repeatCount="indefinite" />
    </path>

    <path d="M749.287 248.329H559.229V4.96401H619.101V190.269H749.287V248.329Z"
          fill="##5b70dc"
    >
        <animate attributeName="fill" values="#5b70dc;#f8b85d;#5b70dc" dur="9s" repeatCount="indefinite" />
    </path>

    <path d="M778.826 248.329V4.96401H882.557C908.315 4.96401 931.521 10.179 952.175 20.6089C973.06 30.8071 989.42 45.1772 1001.26 63.7194C1013.32 82.0297 1019.36 103.005 1019.36 126.647C1019.36 150.288 1013.32 171.38 1001.26 189.922C989.42 208.232 973.06 222.602 952.175 233.032C931.521 243.23 908.315 248.329 882.557 248.329H778.826ZM883.253 193.398C898.105 193.398 911.216 190.617 922.587 185.054C934.19 179.492 943.24 171.727 949.738 161.761C956.236 151.563 959.485 139.858 959.485 126.647C959.485 113.435 956.236 101.847 949.738 91.8802C943.24 81.682 934.19 73.8016 922.587 68.239C911.216 62.6763 898.105 59.895 883.253 59.895H838.697V193.398H883.253Z"
          fill="#7a2cd7"
    >
        <animate attributeName="fill" values="#7045da;#ee81b6;#7045da" dur="8s" repeatCount="indefinite" />
    </path>

    <path d="M1193.33 168.366L1280 248.329H1202.38L1123.01 170.452H1110.48V248.329H1050.61V4.96401H1183.93C1201.1 4.96401 1216.42 8.44066 1229.87 15.394C1243.33 22.3472 1253.78 32.1977 1261.2 44.9454C1268.86 57.6932 1272.69 72.411 1272.69 89.0989C1272.69 104.628 1268.98 118.419 1261.55 130.471C1254.36 142.523 1244.73 151.91 1232.66 158.632C1220.59 165.122 1207.71 168.366 1194.02 168.366H1193.33ZM1110.48 116.564H1180.79C1190.54 116.564 1198.31 114.015 1204.12 108.916C1209.92 103.585 1212.82 96.5157 1212.82 87.7082C1212.82 78.9007 1209.92 71.9474 1204.12 66.8483C1198.31 61.5175 1190.54 58.852 1180.79 58.852H1110.48V116.564Z"
          fill="#d606f3"
    >
        <animate attributeName="fill" values="#d606f3;#65e6e4;#d606f3" dur="10s" repeatCount="indefinite" />
    </path>

    <mask id="mask0_318_741" style="mask-type:alpha" maskUnits="userSpaceOnUse" x="0" y="0" width="1280" height="253">
        <path d="M117.655 252.849C92.5921 252.849 71.2426 249.372 53.606 242.419C35.9694 235.234 22.6259 225.268 13.5755 212.52C4.52518 199.772 0 185.054 0 168.366H58.8273C58.8273 178.333 63.8166 186.445 73.7952 192.703C83.7738 198.961 98.3936 202.09 117.655 202.09C152.464 202.09 169.868 194.094 169.868 178.101C169.868 171.148 166.851 165.933 160.818 162.456C154.784 158.748 144.806 155.735 130.882 153.417L81.8013 145.073C56.9708 141.133 38.1739 133.6 25.4106 122.475C12.6473 111.118 6.26563 95.3568 6.26563 75.1923C6.26563 60.5904 10.4427 47.7268 18.7969 36.6015C27.1511 25.2445 39.3342 16.4369 55.3464 10.179C71.3586 3.68924 90.5036 0.444366 112.781 0.444366C137.148 0.444366 157.917 4.0369 175.09 11.222C192.262 18.1753 205.257 28.0258 214.076 40.7735C223.126 53.5212 227.651 68.239 227.651 84.9269H168.824C168.824 74.9605 163.951 66.8483 154.204 60.5904C144.458 54.3324 130.65 51.2034 112.781 51.2034C81.6853 51.2034 66.1372 59.0838 66.1372 74.8446C66.1372 81.3344 68.9219 86.4334 74.4914 90.1419C80.2929 93.6185 89.8074 96.3998 103.035 98.4858L147.939 105.787C176.25 110.191 196.903 118.187 209.899 129.776C223.126 141.364 229.74 157.009 229.74 176.71C229.74 200.12 220.109 218.662 200.848 232.337C181.587 246.012 153.856 252.849 117.655 252.849Z" fill="#E5E5E5"/>
        <path d="M394.509 252.849C369.215 252.849 346.124 247.634 325.239 237.204C304.354 226.542 287.877 211.709 275.81 192.703C263.743 173.465 257.709 151.447 257.709 126.647C257.709 101.847 263.743 79.9437 275.81 60.938C287.877 41.7006 304.354 26.8669 325.239 16.4369C346.124 5.77523 369.215 0.444366 394.509 0.444366C419.804 0.444366 442.894 5.77523 463.779 16.4369C484.665 26.8669 501.141 41.7006 513.208 60.938C525.275 79.9437 531.309 101.847 531.309 126.647C531.309 151.447 525.275 173.465 513.208 192.703C501.141 211.709 484.665 226.542 463.779 237.204C442.894 247.634 419.804 252.849 394.509 252.849ZM394.509 198.961C408.897 198.961 421.892 195.948 433.495 189.922C445.33 183.895 454.613 175.436 461.342 164.542C468.072 153.649 471.437 141.017 471.437 126.647C471.437 112.277 468.072 99.6447 461.342 88.7512C454.613 77.8577 445.33 69.3979 433.495 63.3717C421.892 57.3455 408.897 54.3324 394.509 54.3324C380.121 54.3324 367.01 57.3455 355.175 63.3717C343.572 69.3979 334.405 77.8577 327.676 88.7512C320.946 99.6447 317.581 112.277 317.581 126.647C317.581 141.017 320.946 153.649 327.676 164.542C334.405 175.436 343.572 183.895 355.175 189.922C367.01 195.948 380.121 198.961 394.509 198.961Z" fill="#E5E5E5"/>
        <path d="M749.287 248.329H559.229V4.96401H619.101V190.269H749.287V248.329Z" fill="#E5E5E5"/>
        <path d="M778.826 248.329V4.96401H882.557C908.315 4.96401 931.521 10.179 952.175 20.6089C973.06 30.8071 989.42 45.1772 1001.26 63.7194C1013.32 82.0297 1019.36 103.005 1019.36 126.647C1019.36 150.288 1013.32 171.38 1001.26 189.922C989.42 208.232 973.06 222.602 952.175 233.032C931.521 243.23 908.315 248.329 882.557 248.329H778.826ZM883.253 193.398C898.105 193.398 911.216 190.617 922.587 185.054C934.19 179.492 943.24 171.727 949.738 161.761C956.236 151.563 959.485 139.858 959.485 126.647C959.485 113.435 956.236 101.847 949.738 91.8802C943.24 81.682 934.19 73.8016 922.587 68.239C911.216 62.6763 898.105 59.895 883.253 59.895H838.697V193.398H883.253Z" fill="#E5E5E5"/>
        <path
            opacity=".5"
            d="M1193.33 168.366L1280 248.329H1202.38L1123.01 170.452H1110.48V248.329H1050.61V4.96401H1183.93C1201.1 4.96401 1216.42 8.44066 1229.87 15.394C1243.33 22.3472 1253.78 32.1977 1261.2 44.9454C1268.86 57.6932 1272.69 72.411 1272.69 89.0989C1272.69 104.628 1268.98 118.419 1261.55 130.471C1254.36 142.523 1244.73 151.91 1232.66 158.632C1220.59 165.122 1207.71 168.366 1194.02 168.366H1193.33ZM1110.48 116.564H1180.79C1190.54 116.564 1198.31 114.015 1204.12 108.916C1209.92 103.585 1212.82 96.5157 1212.82 87.7082C1212.82 78.9007 1209.92 71.9474 1204.12 66.8483C1198.31 61.5175 1190.54 58.852 1180.79 58.852H1110.48V116.564Z" fill="#E5E5E5"
        />
    </mask>
    <g mask="url(#mask0_318_741)">
        <g filter="url(#filter0_f_318_741)">
            <ellipse cx="1071.83" cy="268.776" rx="301.455" ry="232.143" fill="#D426FF"/>
        </g>
        <g filter="url(#filter1_f_318_741)">
            <ellipse cx="403.816" cy="-160.521" rx="381.559" ry="232.143" fill="#00FFE0"/>
        </g>
    </g>
    <defs>
        <filter id="filter0_f_318_741" x="470.375" y="-263.367" width="1202.91" height="1064.29" filterUnits="userSpaceOnUse" color-interpolation-filters="sRGB">
            <feFlood flood-opacity="0" result="BackgroundImageFix"/>
            <feBlend mode="normal" in="SourceGraphic" in2="BackgroundImageFix" result="shape"/>
            <feGaussianBlur stdDeviation="150" result="effect1_foregroundBlur_318_741"/>
        </filter>
        <filter id="filter1_f_318_741" x="-177.742" y="-592.664" width="1163.12" height="864.285" filterUnits="userSpaceOnUse" color-interpolation-filters="sRGB">
            <feFlood flood-opacity="0" result="BackgroundImageFix"/>
            <feBlend mode="normal" in="SourceGraphic" in2="BackgroundImageFix" result="shape"/>
            <feGaussianBlur stdDeviation="100" result="effect1_foregroundBlur_318_741"/>
        </filter>
    </defs>
</svg>
