<svg viewBox="0 0 1280 289" fill="none" xmlns="http://www.w3.org/2000/svg">
    <path class="st0" d="M160.1,88.1c-0.9-10.1-5-17.9-12.2-23.5c-7.1-5.7-17.3-8.5-30.6-8.5c-8.8,0-16.1,1.1-22,3.4
	C89.4,61.9,85,65,82.1,69.1c-2.9,3.9-4.4,8.5-4.5,13.6c-0.2,4.2,0.6,7.9,2.5,11.1c1.9,3.2,4.7,6,8.2,8.5c3.7,2.4,8.1,4.5,13.2,6.3
	c5.1,1.8,10.9,3.4,17.3,4.8l24.2,5.5c13.9,3,26.2,7,36.8,12.1c10.7,5,19.7,11,26.9,18c7.3,7,12.9,15,16.6,24
	c3.8,9.1,5.7,19.2,5.8,30.5c-0.1,17.8-4.6,33-13.5,45.7c-8.9,12.7-21.6,22.5-38.3,29.2c-16.6,6.8-36.6,10.2-60,10.2
	c-23.5,0-44-3.5-61.5-10.6c-17.5-7-31.1-17.8-40.8-32.1c-9.7-14.4-14.7-32.5-15-54.5h65.1c0.5,9.1,3,16.6,7.3,22.7
	c4.3,6,10.2,10.6,17.7,13.7c7.6,3.1,16.4,4.7,26.4,4.7c9.2,0,16.9-1.2,23.3-3.7c6.5-2.5,11.5-5.9,15-10.3c3.5-4.4,5.3-9.4,5.4-15.1
	c-0.1-5.3-1.7-9.8-4.9-13.6c-3.2-3.8-8.1-7.1-14.8-9.9c-6.6-2.8-15-5.4-25.3-7.8l-29.4-6.9c-24.3-5.6-43.5-14.6-57.5-27
	c-14-12.5-21-29.5-20.9-50.8c-0.1-17.4,4.6-32.6,14-45.7C30.7,28.5,43.8,18.3,60.4,11c16.7-7.3,35.7-11,57-11
	c21.8,0,40.7,3.7,56.7,11.1c16.1,7.3,28.6,17.6,37.5,30.9s13.4,28.7,13.6,46.1H160.1z">
        <animate attributeName="fill" values="#456ee6;#c67c9b;#456ee6" dur="7s" repeatCount="indefinite" />
    </path>



    <path class="st0" d="M521,144.4c0,30.9-6,57.2-17.9,78.7c-11.9,21.5-28,37.9-48.3,49c-20.2,11.2-42.9,16.8-68.1,16.8
	c-25.3,0-48-5.6-68.2-16.9s-36.3-27.6-48.2-49c-11.8-21.5-17.7-47.7-17.7-78.5c0-30.9,5.9-57.2,17.7-78.7c11.9-21.5,28-37.8,48.2-49
	C338.7,5.6,361.5,0,386.7,0c25.2,0,47.9,5.6,68.1,16.8c20.3,11.2,36.4,27.5,48.3,49C515.1,87.3,521,113.5,521,144.4z M451.5,144.4
	c0-18.3-2.6-33.8-7.8-46.4c-5.1-12.6-12.5-22.2-22.2-28.7c-9.6-6.5-21.2-9.7-34.7-9.7c-13.5,0-25,3.2-34.7,9.7S334.8,85.4,329.6,98
	c-5.1,12.6-7.7,28.1-7.7,46.4s2.6,33.8,7.7,46.4c5.2,12.6,12.7,22.2,22.4,28.7c9.7,6.5,21.3,9.7,34.7,9.7c13.5,0,25.1-3.2,34.7-9.7
	c9.7-6.5,17.1-16.1,22.2-28.7C448.9,178.2,451.5,162.8,451.5,144.4z">
        <animate attributeName="fill" values="#44a7df;#f9d91f;#44a7df" dur="8s" repeatCount="indefinite" />
    </path>

    <path class="st0" d="M553,285V3.8h68v226h117V285H553z">
        <animate attributeName="fill" values="#5b70dc;#f8b85d;#5b70dc" dur="9s" repeatCount="indefinite" />
    </path>

    <path class="st0" d="M877,285H773.1V3.8h103.8c28.7,0,53.3,5.6,74,16.9C971.7,31.9,987.7,48,999,69.1c11.3,21,16.9,46,16.9,75.2
	c0,29.3-5.6,54.5-16.9,75.5c-11.2,21.1-27.1,37.2-47.9,48.5C930.3,279.5,905.6,285,877,285z M841.1,227.1h33.4c15.7,0,29.1-2.7,40-8
	c11-5.4,19.3-14.1,24.9-26.2c5.7-12.2,8.5-28.4,8.5-48.6c0-20.2-2.8-36.3-8.5-48.3c-5.7-12.1-14.1-20.8-25.1-26.1
	c-11-5.4-24.5-8.1-40.6-8.1h-32.4V227.1z">
        <animate attributeName="fill" values="#7045da;#ee81b6;#7045da" dur="8s" repeatCount="indefinite" />
    </path>

    <path class="st0" d="M1205.9,285h74.1l-58.3-107c15.5-7.1,27.5-17.4,35.9-30.9c8.5-13.6,12.8-30.2,12.8-49.7
	c0-19.2-4.2-35.8-12.5-49.8c-8.3-14.1-20.2-24.9-35.6-32.4c-15.3-7.6-33.4-11.4-54.5-11.4h-116.1V285h68v-96.2h34.8L1205.9,285z
	 M1119.6,58.6h33.5c10.2,0,18.7,1.5,25.7,4.4c6.9,2.8,12.2,7.1,15.8,12.9c3.6,5.7,5.3,12.9,5.3,21.6c0,8.7-1.8,15.8-5.3,21.4
	c-3.6,5.5-8.8,9.6-15.8,12.4c-6.9,2.7-15.4,4-25.7,4h-33.5V58.6z">
        <animate attributeName="fill" values="#d606f3;#65e6e4;#d606f3" dur="10s" repeatCount="indefinite" />
    </path>

    <mask id="mask0_318_741" style="mask-type:alpha" maskUnits="userSpaceOnUse" x="0" y="0" width="1280" height="289">
        <path d="M160.1,88.1c-0.9-10.1-5-17.9-12.2-23.5c-7.1-5.7-17.3-8.5-30.6-8.5c-8.8,0-16.1,1.1-22,3.4
	C89.4,61.9,85,65,82.1,69.1c-2.9,3.9-4.4,8.5-4.5,13.6c-0.2,4.2,0.6,7.9,2.5,11.1c1.9,3.2,4.7,6,8.2,8.5c3.7,2.4,8.1,4.5,13.2,6.3
	c5.1,1.8,10.9,3.4,17.3,4.8l24.2,5.5c13.9,3,26.2,7,36.8,12.1c10.7,5,19.7,11,26.9,18c7.3,7,12.9,15,16.6,24
	c3.8,9.1,5.7,19.2,5.8,30.5c-0.1,17.8-4.6,33-13.5,45.7c-8.9,12.7-21.6,22.5-38.3,29.2c-16.6,6.8-36.6,10.2-60,10.2
	c-23.5,0-44-3.5-61.5-10.6c-17.5-7-31.1-17.8-40.8-32.1c-9.7-14.4-14.7-32.5-15-54.5h65.1c0.5,9.1,3,16.6,7.3,22.7
	c4.3,6,10.2,10.6,17.7,13.7c7.6,3.1,16.4,4.7,26.4,4.7c9.2,0,16.9-1.2,23.3-3.7c6.5-2.5,11.5-5.9,15-10.3c3.5-4.4,5.3-9.4,5.4-15.1
	c-0.1-5.3-1.7-9.8-4.9-13.6c-3.2-3.8-8.1-7.1-14.8-9.9c-6.6-2.8-15-5.4-25.3-7.8l-29.4-6.9c-24.3-5.6-43.5-14.6-57.5-27
	c-14-12.5-21-29.5-20.9-50.8c-0.1-17.4,4.6-32.6,14-45.7C30.7,28.5,43.8,18.3,60.4,11c16.7-7.3,35.7-11,57-11
	c21.8,0,40.7,3.7,56.7,11.1c16.1,7.3,28.6,17.6,37.5,30.9s13.4,28.7,13.6,46.1H160.1z" fill="#E5E5E5"/>
        <path d="M521,144.4c0,30.9-6,57.2-17.9,78.7c-11.9,21.5-28,37.9-48.3,49c-20.2,11.2-42.9,16.8-68.1,16.8
	c-25.3,0-48-5.6-68.2-16.9s-36.3-27.6-48.2-49c-11.8-21.5-17.7-47.7-17.7-78.5c0-30.9,5.9-57.2,17.7-78.7c11.9-21.5,28-37.8,48.2-49
	C338.7,5.6,361.5,0,386.7,0c25.2,0,47.9,5.6,68.1,16.8c20.3,11.2,36.4,27.5,48.3,49C515.1,87.3,521,113.5,521,144.4z M451.5,144.4
	c0-18.3-2.6-33.8-7.8-46.4c-5.1-12.6-12.5-22.2-22.2-28.7c-9.6-6.5-21.2-9.7-34.7-9.7c-13.5,0-25,3.2-34.7,9.7S334.8,85.4,329.6,98
	c-5.1,12.6-7.7,28.1-7.7,46.4s2.6,33.8,7.7,46.4c5.2,12.6,12.7,22.2,22.4,28.7c9.7,6.5,21.3,9.7,34.7,9.7c13.5,0,25.1-3.2,34.7-9.7
	c9.7-6.5,17.1-16.1,22.2-28.7C448.9,178.2,451.5,162.8,451.5,144.4z" fill="#E5E5E5"/>
        <path d="M553,285V3.8h68v226h117V285H553z" fill="#E5E5E5"/>
        <path d="M877,285H773.1V3.8h103.8c28.7,0,53.3,5.6,74,16.9C971.7,31.9,987.7,48,999,69.1c11.3,21,16.9,46,16.9,75.2
	c0,29.3-5.6,54.5-16.9,75.5c-11.2,21.1-27.1,37.2-47.9,48.5C930.3,279.5,905.6,285,877,285z M841.1,227.1h33.4c15.7,0,29.1-2.7,40-8
	c11-5.4,19.3-14.1,24.9-26.2c5.7-12.2,8.5-28.4,8.5-48.6c0-20.2-2.8-36.3-8.5-48.3c-5.7-12.1-14.1-20.8-25.1-26.1
	c-11-5.4-24.5-8.1-40.6-8.1h-32.4V227.1z" fill="#E5E5E5"/>
        <path
            opacity=".5"
            d="M1205.9,285h74.1l-58.3-107c15.5-7.1,27.5-17.4,35.9-30.9c8.5-13.6,12.8-30.2,12.8-49.7
	c0-19.2-4.2-35.8-12.5-49.8c-8.3-14.1-20.2-24.9-35.6-32.4c-15.3-7.6-33.4-11.4-54.5-11.4h-116.1V285h68v-96.2h34.8L1205.9,285z
	 M1119.6,58.6h33.5c10.2,0,18.7,1.5,25.7,4.4c6.9,2.8,12.2,7.1,15.8,12.9c3.6,5.7,5.3,12.9,5.3,21.6c0,8.7-1.8,15.8-5.3,21.4
	c-3.6,5.5-8.8,9.6-15.8,12.4c-6.9,2.7-15.4,4-25.7,4h-33.5V58.6z" fill="#E5E5E5"
        />
    </mask>
    <g mask="url(#mask0_318_741)">
        <g filter="url(#filter0_f_318_741)">
            <ellipse cx="1071.83" cy="268.776" rx="301.455" ry="232.143" fill="#D426FF"/>
        </g>
        <g filter="url(#filter1_f_318_741)">
            <ellipse cx="403.816" cy="-160.521" rx="381.559" ry="232.143" fill="#00FFE0"/>
        </g>
    </g>
    <defs>
        <filter id="filter0_f_318_741" x="470.375" y="-263.367" width="1202.91" height="1064.29" filterUnits="userSpaceOnUse" color-interpolation-filters="sRGB">
            <feFlood flood-opacity="0" result="BackgroundImageFix"/>
            <feBlend mode="normal" in="SourceGraphic" in2="BackgroundImageFix" result="shape"/>
            <feGaussianBlur stdDeviation="150" result="effect1_foregroundBlur_318_741"/>
        </filter>
        <filter id="filter1_f_318_741" x="-177.742" y="-592.664" width="1163.12" height="864.285" filterUnits="userSpaceOnUse" color-interpolation-filters="sRGB">
            <feFlood flood-opacity="0" result="BackgroundImageFix"/>
            <feBlend mode="normal" in="SourceGraphic" in2="BackgroundImageFix" result="shape"/>
            <feGaussianBlur stdDeviation="100" result="effect1_foregroundBlur_318_741"/>
        </filter>
    </defs>
</svg>
