<svg width="10" height="11" viewBox="0 0 10 11" fill="none" xmlns="http://www.w3.org/2000/svg">
    <path d="M9.77297 1.02297C9.96823 0.827709 9.96823 0.511126 9.77297 0.315864C9.57771 0.120602 9.26113 0.120602 9.06586 0.315864L9.77297 1.02297ZM0.227029 9.1547C0.0317667 9.34996 0.0317673 9.66654 0.227029 9.86181C0.422292 10.0571 0.738873 10.0571 0.934136 9.86181L0.227029 9.1547ZM9.06586 9.86181C9.26113 10.0571 9.57771 10.0571 9.77297 9.86181C9.96823 9.66654 9.96823 9.34996 9.77297 9.1547L9.06586 9.86181ZM0.934136 0.315864C0.738874 0.120601 0.422292 0.120602 0.22703 0.315864C0.0317673 0.511126 0.0317675 0.827708 0.22703 1.02297L0.934136 0.315864ZM9.06586 0.315864L0.227029 9.1547L0.934136 9.86181L9.77297 1.02297L9.06586 0.315864ZM9.77297 9.1547L0.934136 0.315864L0.22703 1.02297L9.06586 9.86181L9.77297 9.1547Z" fill="#CCCDDD"/>
</svg>
