<svg width="34" height="34" viewBox="0 0 34 34" fill="none" xmlns="http://www.w3.org/2000/svg">
    <path fill-rule="evenodd" clip-rule="evenodd" d="M20.4168 18.6768C20.4168 18.6768 20.4168 18.6768 20.4168 18.6768C21.1523 19.0855 21.8883 19.4944 22.6238 19.9031C22.9403 20.0789 23.0792 20.4519 22.9546 20.7921C22.3218 22.5209 20.4684 23.4335 18.7245 22.797C15.1535 21.4936 12.5066 18.8465 11.203 15.2756C10.5665 13.5317 11.4791 11.6782 13.2079 11.0454C13.5481 10.9208 13.9211 11.0597 14.0973 11.3762C14.5056 12.1118 14.9145 12.8477 15.3232 13.5832C15.5148 13.9283 15.4698 14.3379 15.2075 14.6325C15.1408 14.7076 15.0741 14.7827 15.0073 14.8578C14.4995 15.4292 14.3425 16.2534 14.7523 16.8987C15.3483 17.8373 16.1627 18.6517 17.1013 19.2477C17.7465 19.6575 18.5708 19.5005 19.1422 18.9927C19.2173 18.9259 19.2924 18.8592 19.3675 18.7925C19.6625 18.5302 20.0718 18.4852 20.4167 18.6768C20.4167 18.6768 20.4167 18.6768 20.4168 18.6768Z" fill="#CCCDDD"/>
    <rect x="0.5" y="0.5" width="33" height="33" rx="16.5" stroke="#454264"/>
</svg>
