<svg width="34" height="34" viewBox="0 0 34 34" fill="none" xmlns="http://www.w3.org/2000/svg">
    <path d="M11.2223 13.7494C11.0813 13.9895 11 14.2723 11 14.575V20.425C11 21.2948 11.6716 22 12.5 22H21.5C22.3284 22 23 21.2948 23 20.425V14.575C23 14.2722 22.9186 13.9894 22.7776 13.7494L18.2158 17.8297C17.5151 18.4564 16.4848 18.4564 15.7841 17.8297L11.2223 13.7494Z" fill="#CCCDDD"/>
    <path d="M22.234 13.2011C22.017 13.073 21.7666 13 21.5 13H12.5C12.2333 13 11.9829 13.0731 11.7659 13.2012L16.2704 17.2302C16.6908 17.6062 17.3091 17.6062 17.7295 17.2302L22.234 13.2011Z" fill="#CCCDDD"/>
    <rect x="0.5" y="0.5" width="33" height="33" rx="16.5" stroke="#454264"/>
</svg>
